<svg xmlns="http://www.w3.org/2000/svg" xmlns:xlink="http://www.w3.org/1999/xlink" width="500" zoomAndPan="magnify" viewBox="0 0 375 374.999991" height="500" preserveAspectRatio="xMidYMid meet" version="1.0"><defs><g/><clipPath id="328694edfe"><path d="M 157 208 L 195 208 L 195 234.695312 L 157 234.695312 Z M 157 208 " clip-rule="nonzero"/></clipPath><clipPath id="4dee2f6e4d"><path d="M 141 105 L 260.574219 105 L 260.574219 234.695312 L 141 234.695312 Z M 141 105 " clip-rule="nonzero"/></clipPath><clipPath id="b629137286"><path d="M 170 75.695312 L 225 75.695312 L 225 121 L 170 121 Z M 170 75.695312 " clip-rule="nonzero"/></clipPath><clipPath id="3bca71f1ec"><path d="M 114.324219 108 L 149 108 L 149 228 L 114.324219 228 Z M 114.324219 108 " clip-rule="nonzero"/></clipPath></defs><path fill="#274082" d="M 168.402344 193.234375 L 150.886719 182.421875 L 141.902344 191.4375 L 134.84375 226.894531 L 168.402344 193.234375 " fill-opacity="1" fill-rule="nonzero"/><g clip-path="url(#328694edfe)"><path fill="#274082" d="M 183.734375 208.613281 L 157.816406 234.605469 L 186.113281 234.605469 L 194.515625 226.179688 L 183.734375 208.613281 " fill-opacity="1" fill-rule="nonzero"/></g><g clip-path="url(#4dee2f6e4d)"><path fill="#336dbf" d="M 221.972656 123.042969 C 219.316406 123.042969 217.160156 120.882812 217.160156 118.214844 C 217.160156 115.546875 219.316406 113.382812 221.972656 113.382812 C 224.632812 113.382812 226.789062 115.546875 226.789062 118.214844 C 226.789062 120.882812 224.632812 123.042969 221.972656 123.042969 Z M 172.207031 123.042969 C 169.546875 123.042969 167.390625 120.882812 167.390625 118.214844 C 167.390625 115.546875 169.546875 113.382812 172.207031 113.382812 C 174.867188 113.382812 177.023438 115.546875 177.023438 118.214844 C 177.023438 120.882812 174.867188 123.042969 172.207031 123.042969 Z M 260.21875 231.3125 L 240.566406 108.136719 C 240.3125 106.847656 239.183594 105.917969 237.871094 105.917969 L 156.308594 105.917969 C 155 105.917969 153.871094 106.847656 153.613281 108.136719 L 141.902344 191.4375 L 150.886719 182.421875 L 210.484375 166.40625 L 194.515625 226.179688 L 186.113281 234.605469 L 257.523438 234.605469 C 259.257812 234.605469 260.558594 233.019531 260.21875 231.3125 " fill-opacity="1" fill-rule="nonzero"/></g><g clip-path="url(#b629137286)"><path fill="#274082" d="M 221.976562 120.316406 C 220.816406 120.316406 219.878906 119.375 219.878906 118.214844 C 219.878906 106.664062 217.476562 96.847656 212.929688 89.824219 C 208.824219 83.480469 203.199219 79.992188 197.089844 79.992188 C 190.980469 79.992188 185.359375 83.480469 181.253906 89.824219 C 176.707031 96.847656 174.304688 106.664062 174.304688 118.214844 C 174.304688 119.375 173.363281 120.316406 172.207031 120.316406 C 171.050781 120.316406 170.113281 119.375 170.113281 118.214844 C 170.113281 105.851562 172.75 95.242188 177.738281 87.535156 C 182.640625 79.957031 189.515625 75.789062 197.089844 75.789062 C 204.667969 75.789062 211.539062 79.957031 216.445312 87.535156 C 221.433594 95.242188 224.070312 105.851562 224.070312 118.214844 C 224.070312 119.375 223.128906 120.316406 221.976562 120.316406 " fill-opacity="1" fill-rule="nonzero"/></g><g clip-path="url(#3bca71f1ec)"><path fill="#274082" d="M 148.753906 108.136719 L 114.3125 224.863281 L 124.433594 221.609375 L 129.234375 227.636719 L 148.753906 108.136719 " fill-opacity="1" fill-rule="nonzero"/></g><g fill="#000000" fill-opacity="1"><g transform="translate(102.608178, 255.628402)"><g><path d="M 4.453125 0 L 0.25 0 L 0.25 -6.578125 L 4.453125 -6.578125 L 4.453125 -5.984375 L 0.9375 -5.984375 L 0.9375 -3.625 L 3.53125 -3.625 L 3.53125 -3.046875 L 0.9375 -3.046875 L 0.9375 -0.59375 L 4.453125 -0.59375 Z M 4.453125 0 "/></g></g></g><g fill="#000000" fill-opacity="1"><g transform="translate(110.425054, 255.628402)"><g><path d="M 4.453125 0 L 0.25 0 L 0.25 -6.578125 L 0.9375 -6.578125 L 0.9375 -0.59375 L 4.453125 -0.59375 Z M 4.453125 0 "/></g></g></g><g fill="#000000" fill-opacity="1"><g transform="translate(118.241931, 255.628402)"><g><path d="M 4.453125 0 L 0.25 0 L 0.25 -6.578125 L 4.453125 -6.578125 L 4.453125 -5.984375 L 0.9375 -5.984375 L 0.9375 -3.625 L 3.53125 -3.625 L 3.53125 -3.046875 L 0.9375 -3.046875 L 0.9375 -0.59375 L 4.453125 -0.59375 Z M 4.453125 0 "/></g></g></g><g fill="#000000" fill-opacity="1"><g transform="translate(126.058807, 255.628402)"><g><path d="M 4.734375 -1.71875 C 4.554688 -1.15625 4.273438 -0.707031 3.890625 -0.375 C 3.503906 -0.0507812 3.015625 0.109375 2.421875 0.109375 C 1.960938 0.109375 1.570312 0.015625 1.25 -0.171875 C 0.9375 -0.359375 0.675781 -0.609375 0.46875 -0.921875 C 0.269531 -1.234375 0.125 -1.59375 0.03125 -2 C -0.0507812 -2.414062 -0.09375 -2.84375 -0.09375 -3.28125 C -0.09375 -3.71875 -0.0507812 -4.140625 0.03125 -4.546875 C 0.125 -4.960938 0.269531 -5.328125 0.46875 -5.640625 C 0.675781 -5.953125 0.9375 -6.203125 1.25 -6.390625 C 1.570312 -6.585938 1.960938 -6.6875 2.421875 -6.6875 C 2.828125 -6.6875 3.171875 -6.613281 3.453125 -6.46875 C 3.742188 -6.320312 3.960938 -6.101562 4.109375 -5.8125 L 4.109375 -6.578125 L 4.6875 -6.578125 L 4.6875 -4.421875 L 4.109375 -4.421875 C 4.109375 -4.648438 4.0625 -4.867188 3.96875 -5.078125 C 3.882812 -5.285156 3.765625 -5.460938 3.609375 -5.609375 C 3.460938 -5.765625 3.285156 -5.882812 3.078125 -5.96875 C 2.867188 -6.050781 2.648438 -6.09375 2.421875 -6.09375 C 2.066406 -6.09375 1.769531 -6.007812 1.53125 -5.84375 C 1.300781 -5.675781 1.113281 -5.457031 0.96875 -5.1875 C 0.832031 -4.914062 0.734375 -4.613281 0.671875 -4.28125 C 0.617188 -3.945312 0.59375 -3.613281 0.59375 -3.28125 C 0.59375 -2.945312 0.617188 -2.613281 0.671875 -2.28125 C 0.734375 -1.945312 0.832031 -1.644531 0.96875 -1.375 C 1.113281 -1.113281 1.300781 -0.894531 1.53125 -0.71875 C 1.769531 -0.550781 2.066406 -0.46875 2.421875 -0.46875 C 3.242188 -0.46875 3.816406 -0.960938 4.140625 -1.953125 Z M 4.734375 -1.71875 "/></g></g></g><g fill="#000000" fill-opacity="1"><g transform="translate(133.875683, 255.628402)"><g><path d="M 4.6875 -4.34375 L 4.109375 -4.34375 L 4.109375 -5.984375 L 2.6875 -5.984375 L 2.6875 -0.59375 L 3.75 -0.59375 L 3.75 0 L 0.9375 0 L 0.9375 -0.59375 L 2 -0.59375 L 2 -5.984375 L 0.59375 -5.984375 L 0.59375 -4.34375 L 0 -4.34375 L 0 -6.578125 L 4.6875 -6.578125 Z M 4.6875 -4.34375 "/></g></g></g><g fill="#000000" fill-opacity="1"><g transform="translate(141.692558, 255.628402)"><g><path d="M 4.75 0 L 3.875 0 L 1.953125 -2.8125 L 0.9375 -2.8125 L 0.9375 0 L 0.25 0 L 0.25 -6.578125 L 2.40625 -6.578125 C 3.132812 -6.578125 3.695312 -6.414062 4.09375 -6.09375 C 4.488281 -5.78125 4.6875 -5.3125 4.6875 -4.6875 C 4.6875 -4.414062 4.632812 -4.171875 4.53125 -3.953125 C 4.4375 -3.734375 4.304688 -3.546875 4.140625 -3.390625 C 3.972656 -3.234375 3.769531 -3.109375 3.53125 -3.015625 C 3.300781 -2.921875 3.050781 -2.863281 2.78125 -2.84375 Z M 3.96875 -4.6875 C 3.96875 -5.132812 3.828125 -5.460938 3.546875 -5.671875 C 3.273438 -5.878906 2.894531 -5.984375 2.40625 -5.984375 L 0.9375 -5.984375 L 0.9375 -3.40625 L 2.40625 -3.40625 C 2.894531 -3.40625 3.273438 -3.503906 3.546875 -3.703125 C 3.828125 -3.910156 3.96875 -4.238281 3.96875 -4.6875 Z M 3.96875 -4.6875 "/></g></g></g><g fill="#000000" fill-opacity="1"><g transform="translate(149.509433, 255.628402)"><g><path d="M 4.875 -3.28125 C 4.875 -2.84375 4.828125 -2.414062 4.734375 -2 C 4.640625 -1.59375 4.492188 -1.234375 4.296875 -0.921875 C 4.097656 -0.609375 3.835938 -0.359375 3.515625 -0.171875 C 3.203125 0.015625 2.8125 0.109375 2.34375 0.109375 C 1.882812 0.109375 1.492188 0.015625 1.171875 -0.171875 C 0.859375 -0.359375 0.597656 -0.609375 0.390625 -0.921875 C 0.191406 -1.234375 0.0507812 -1.59375 -0.03125 -2 C -0.125 -2.414062 -0.171875 -2.84375 -0.171875 -3.28125 C -0.171875 -3.71875 -0.125 -4.140625 -0.03125 -4.546875 C 0.0507812 -4.960938 0.191406 -5.328125 0.390625 -5.640625 C 0.597656 -5.953125 0.863281 -6.203125 1.1875 -6.390625 C 1.507812 -6.585938 1.894531 -6.6875 2.34375 -6.6875 C 2.800781 -6.6875 3.191406 -6.585938 3.515625 -6.390625 C 3.835938 -6.203125 4.097656 -5.953125 4.296875 -5.640625 C 4.492188 -5.328125 4.640625 -4.960938 4.734375 -4.546875 C 4.828125 -4.140625 4.875 -3.71875 4.875 -3.28125 Z M 4.171875 -3.28125 C 4.171875 -3.707031 4.128906 -4.09375 4.046875 -4.4375 C 3.960938 -4.789062 3.84375 -5.085938 3.6875 -5.328125 C 3.539062 -5.578125 3.351562 -5.765625 3.125 -5.890625 C 2.894531 -6.023438 2.632812 -6.09375 2.34375 -6.09375 C 1.988281 -6.09375 1.691406 -6.007812 1.453125 -5.84375 C 1.222656 -5.675781 1.035156 -5.457031 0.890625 -5.1875 C 0.753906 -4.914062 0.660156 -4.613281 0.609375 -4.28125 C 0.554688 -3.945312 0.53125 -3.613281 0.53125 -3.28125 C 0.53125 -2.945312 0.554688 -2.613281 0.609375 -2.28125 C 0.660156 -1.945312 0.753906 -1.644531 0.890625 -1.375 C 1.035156 -1.113281 1.222656 -0.894531 1.453125 -0.71875 C 1.691406 -0.550781 1.988281 -0.46875 2.34375 -0.46875 C 2.707031 -0.46875 3.003906 -0.550781 3.234375 -0.71875 C 3.472656 -0.894531 3.660156 -1.113281 3.796875 -1.375 C 3.941406 -1.644531 4.039062 -1.945312 4.09375 -2.28125 C 4.144531 -2.613281 4.171875 -2.945312 4.171875 -3.28125 Z M 4.171875 -3.28125 "/></g></g></g><g fill="#000000" fill-opacity="1"><g transform="translate(157.326308, 255.628402)"><g><path d="M 4.453125 0 L 3.59375 0 L 0.9375 -5.5625 L 0.9375 0 L 0.25 0 L 0.25 -6.578125 L 1.21875 -6.578125 L 3.75 -1.265625 L 3.75 -6.578125 L 4.453125 -6.578125 Z M 4.453125 0 "/></g></g></g><g fill="#000000" fill-opacity="1"><g transform="translate(165.143183, 255.628402)"><g><path d="M 3.75 0 L 0.9375 0 L 0.9375 -0.59375 L 2 -0.59375 L 2 -5.984375 L 0.9375 -5.984375 L 0.9375 -6.578125 L 3.75 -6.578125 L 3.75 -5.984375 L 2.6875 -5.984375 L 2.6875 -0.59375 L 3.75 -0.59375 Z M 3.75 0 "/></g></g></g><g fill="#000000" fill-opacity="1"><g transform="translate(172.960058, 255.628402)"><g><path d="M 4.734375 -1.71875 C 4.554688 -1.15625 4.273438 -0.707031 3.890625 -0.375 C 3.503906 -0.0507812 3.015625 0.109375 2.421875 0.109375 C 1.960938 0.109375 1.570312 0.015625 1.25 -0.171875 C 0.9375 -0.359375 0.675781 -0.609375 0.46875 -0.921875 C 0.269531 -1.234375 0.125 -1.59375 0.03125 -2 C -0.0507812 -2.414062 -0.09375 -2.84375 -0.09375 -3.28125 C -0.09375 -3.71875 -0.0507812 -4.140625 0.03125 -4.546875 C 0.125 -4.960938 0.269531 -5.328125 0.46875 -5.640625 C 0.675781 -5.953125 0.9375 -6.203125 1.25 -6.390625 C 1.570312 -6.585938 1.960938 -6.6875 2.421875 -6.6875 C 2.828125 -6.6875 3.171875 -6.613281 3.453125 -6.46875 C 3.742188 -6.320312 3.960938 -6.101562 4.109375 -5.8125 L 4.109375 -6.578125 L 4.6875 -6.578125 L 4.6875 -4.421875 L 4.109375 -4.421875 C 4.109375 -4.648438 4.0625 -4.867188 3.96875 -5.078125 C 3.882812 -5.285156 3.765625 -5.460938 3.609375 -5.609375 C 3.460938 -5.765625 3.285156 -5.882812 3.078125 -5.96875 C 2.867188 -6.050781 2.648438 -6.09375 2.421875 -6.09375 C 2.066406 -6.09375 1.769531 -6.007812 1.53125 -5.84375 C 1.300781 -5.675781 1.113281 -5.457031 0.96875 -5.1875 C 0.832031 -4.914062 0.734375 -4.613281 0.671875 -4.28125 C 0.617188 -3.945312 0.59375 -3.613281 0.59375 -3.28125 C 0.59375 -2.945312 0.617188 -2.613281 0.671875 -2.28125 C 0.734375 -1.945312 0.832031 -1.644531 0.96875 -1.375 C 1.113281 -1.113281 1.300781 -0.894531 1.53125 -0.71875 C 1.769531 -0.550781 2.066406 -0.46875 2.421875 -0.46875 C 3.242188 -0.46875 3.816406 -0.960938 4.140625 -1.953125 Z M 4.734375 -1.71875 "/></g></g></g><g fill="#000000" fill-opacity="1"><g transform="translate(180.776933, 255.628402)"><g><path d="M 4.53125 -1.71875 C 4.53125 -1.4375 4.472656 -1.179688 4.359375 -0.953125 C 4.242188 -0.734375 4.085938 -0.539062 3.890625 -0.375 C 3.703125 -0.21875 3.484375 -0.0976562 3.234375 -0.015625 C 2.984375 0.0664062 2.726562 0.109375 2.46875 0.109375 C 2.09375 0.109375 1.75 0.0390625 1.4375 -0.09375 C 1.132812 -0.226562 0.890625 -0.429688 0.703125 -0.703125 L 0.703125 0 L 0.125 0 L 0.125 -2 L 0.703125 -2 C 0.703125 -1.769531 0.753906 -1.5625 0.859375 -1.375 C 0.960938 -1.195312 1.09375 -1.039062 1.25 -0.90625 C 1.414062 -0.769531 1.601562 -0.660156 1.8125 -0.578125 C 2.03125 -0.503906 2.25 -0.46875 2.46875 -0.46875 C 2.65625 -0.46875 2.832031 -0.492188 3 -0.546875 C 3.164062 -0.609375 3.3125 -0.691406 3.4375 -0.796875 C 3.5625 -0.898438 3.660156 -1.023438 3.734375 -1.171875 C 3.804688 -1.316406 3.84375 -1.484375 3.84375 -1.671875 C 3.84375 -1.878906 3.796875 -2.054688 3.703125 -2.203125 C 3.609375 -2.359375 3.484375 -2.488281 3.328125 -2.59375 C 3.171875 -2.707031 2.992188 -2.800781 2.796875 -2.875 C 2.597656 -2.945312 2.398438 -3.023438 2.203125 -3.109375 C 1.960938 -3.191406 1.722656 -3.273438 1.484375 -3.359375 C 1.253906 -3.453125 1.039062 -3.566406 0.84375 -3.703125 C 0.65625 -3.847656 0.503906 -4.019531 0.390625 -4.21875 C 0.273438 -4.425781 0.21875 -4.679688 0.21875 -4.984375 C 0.21875 -5.253906 0.273438 -5.492188 0.390625 -5.703125 C 0.503906 -5.910156 0.648438 -6.085938 0.828125 -6.234375 C 1.015625 -6.378906 1.226562 -6.488281 1.46875 -6.5625 C 1.71875 -6.644531 1.972656 -6.6875 2.234375 -6.6875 C 2.554688 -6.6875 2.851562 -6.617188 3.125 -6.484375 C 3.394531 -6.359375 3.601562 -6.160156 3.75 -5.890625 L 3.75 -6.578125 L 4.359375 -6.578125 L 4.359375 -4.6875 L 3.75 -4.6875 C 3.75 -4.882812 3.707031 -5.070312 3.625 -5.25 C 3.539062 -5.425781 3.425781 -5.570312 3.28125 -5.6875 C 3.144531 -5.8125 2.984375 -5.910156 2.796875 -5.984375 C 2.617188 -6.054688 2.429688 -6.09375 2.234375 -6.09375 C 2.054688 -6.09375 1.882812 -6.070312 1.71875 -6.03125 C 1.5625 -5.988281 1.421875 -5.921875 1.296875 -5.828125 C 1.179688 -5.742188 1.085938 -5.628906 1.015625 -5.484375 C 0.941406 -5.347656 0.90625 -5.179688 0.90625 -4.984375 C 0.90625 -4.816406 0.945312 -4.671875 1.03125 -4.546875 C 1.113281 -4.429688 1.226562 -4.328125 1.375 -4.234375 C 1.519531 -4.140625 1.6875 -4.054688 1.875 -3.984375 C 2.070312 -3.910156 2.269531 -3.832031 2.46875 -3.75 C 2.707031 -3.664062 2.945312 -3.566406 3.1875 -3.453125 C 3.4375 -3.347656 3.660156 -3.21875 3.859375 -3.0625 C 4.054688 -2.914062 4.21875 -2.734375 4.34375 -2.515625 C 4.46875 -2.296875 4.53125 -2.03125 4.53125 -1.71875 Z M 4.53125 -1.71875 "/></g></g></g><g fill="#000000" fill-opacity="1"><g transform="translate(188.593808, 255.628402)"><g/></g></g><g fill="#000000" fill-opacity="1"><g transform="translate(196.410683, 255.628402)"><g><path d="M 4.453125 0 L 3.75 0 L 3.75 -5.46875 L 2.59375 -2.078125 L 2.09375 -2.078125 L 0.9375 -5.46875 L 0.9375 0 L 0.25 0 L 0.25 -6.578125 L 1.140625 -6.578125 L 2.34375 -3.140625 L 3.546875 -6.578125 L 4.453125 -6.578125 Z M 4.453125 0 "/></g></g></g><g fill="#000000" fill-opacity="1"><g transform="translate(204.227564, 255.628402)"><g><path d="M 4.453125 -2.34375 C 4.453125 -1.96875 4.410156 -1.628906 4.328125 -1.328125 C 4.242188 -1.023438 4.113281 -0.765625 3.9375 -0.546875 C 3.769531 -0.335938 3.550781 -0.175781 3.28125 -0.0625 C 3.019531 0.0507812 2.707031 0.109375 2.34375 0.109375 C 1.976562 0.109375 1.660156 0.0507812 1.390625 -0.0625 C 1.128906 -0.175781 0.914062 -0.335938 0.75 -0.546875 C 0.582031 -0.765625 0.457031 -1.023438 0.375 -1.328125 C 0.289062 -1.640625 0.25 -1.976562 0.25 -2.34375 L 0.25 -6.578125 L 0.9375 -6.578125 L 0.9375 -2.34375 C 0.9375 -2.144531 0.953125 -1.929688 0.984375 -1.703125 C 1.023438 -1.484375 1.09375 -1.28125 1.1875 -1.09375 C 1.289062 -0.914062 1.429688 -0.765625 1.609375 -0.640625 C 1.796875 -0.523438 2.039062 -0.46875 2.34375 -0.46875 C 2.632812 -0.46875 2.875 -0.523438 3.0625 -0.640625 C 3.25 -0.765625 3.394531 -0.914062 3.5 -1.09375 C 3.601562 -1.28125 3.671875 -1.484375 3.703125 -1.703125 C 3.734375 -1.929688 3.75 -2.144531 3.75 -2.34375 L 3.75 -6.578125 L 4.453125 -6.578125 Z M 4.453125 -2.34375 "/></g></g></g><g fill="#000000" fill-opacity="1"><g transform="translate(212.044439, 255.628402)"><g><path d="M 4.453125 0 L 0.25 0 L 0.25 -6.578125 L 0.9375 -6.578125 L 0.9375 -0.59375 L 4.453125 -0.59375 Z M 4.453125 0 "/></g></g></g><g fill="#000000" fill-opacity="1"><g transform="translate(219.861313, 255.628402)"><g><path d="M 4.6875 -4.34375 L 4.109375 -4.34375 L 4.109375 -5.984375 L 2.6875 -5.984375 L 2.6875 -0.59375 L 3.75 -0.59375 L 3.75 0 L 0.9375 0 L 0.9375 -0.59375 L 2 -0.59375 L 2 -5.984375 L 0.59375 -5.984375 L 0.59375 -4.34375 L 0 -4.34375 L 0 -6.578125 L 4.6875 -6.578125 Z M 4.6875 -4.34375 "/></g></g></g><g fill="#000000" fill-opacity="1"><g transform="translate(227.678188, 255.628402)"><g><path d="M 3.75 0 L 0.9375 0 L 0.9375 -0.59375 L 2 -0.59375 L 2 -5.984375 L 0.9375 -5.984375 L 0.9375 -6.578125 L 3.75 -6.578125 L 3.75 -5.984375 L 2.6875 -5.984375 L 2.6875 -0.59375 L 3.75 -0.59375 Z M 3.75 0 "/></g></g></g><g fill="#000000" fill-opacity="1"><g transform="translate(235.495063, 255.628402)"><g><path d="M 5.015625 -6.578125 L 2.8125 0 L 1.875 0 L -0.296875 -6.578125 L 0.4375 -6.578125 L 2.34375 -0.703125 L 4.265625 -6.578125 Z M 5.015625 -6.578125 "/></g></g></g><g fill="#000000" fill-opacity="1"><g transform="translate(243.311938, 255.628402)"><g><path d="M 4.453125 0 L 0.25 0 L 0.25 -6.578125 L 4.453125 -6.578125 L 4.453125 -5.984375 L 0.9375 -5.984375 L 0.9375 -3.625 L 3.53125 -3.625 L 3.53125 -3.046875 L 0.9375 -3.046875 L 0.9375 -0.59375 L 4.453125 -0.59375 Z M 4.453125 0 "/></g></g></g><g fill="#000000" fill-opacity="1"><g transform="translate(251.128813, 255.628402)"><g><path d="M 4.75 0 L 3.875 0 L 1.953125 -2.8125 L 0.9375 -2.8125 L 0.9375 0 L 0.25 0 L 0.25 -6.578125 L 2.40625 -6.578125 C 3.132812 -6.578125 3.695312 -6.414062 4.09375 -6.09375 C 4.488281 -5.78125 4.6875 -5.3125 4.6875 -4.6875 C 4.6875 -4.414062 4.632812 -4.171875 4.53125 -3.953125 C 4.4375 -3.734375 4.304688 -3.546875 4.140625 -3.390625 C 3.972656 -3.234375 3.769531 -3.109375 3.53125 -3.015625 C 3.300781 -2.921875 3.050781 -2.863281 2.78125 -2.84375 Z M 3.96875 -4.6875 C 3.96875 -5.132812 3.828125 -5.460938 3.546875 -5.671875 C 3.273438 -5.878906 2.894531 -5.984375 2.40625 -5.984375 L 0.9375 -5.984375 L 0.9375 -3.40625 L 2.40625 -3.40625 C 2.894531 -3.40625 3.273438 -3.503906 3.546875 -3.703125 C 3.828125 -3.910156 3.96875 -4.238281 3.96875 -4.6875 Z M 3.96875 -4.6875 "/></g></g></g><g fill="#000000" fill-opacity="1"><g transform="translate(258.945688, 255.628402)"><g><path d="M 4.53125 -1.71875 C 4.53125 -1.4375 4.472656 -1.179688 4.359375 -0.953125 C 4.242188 -0.734375 4.085938 -0.539062 3.890625 -0.375 C 3.703125 -0.21875 3.484375 -0.0976562 3.234375 -0.015625 C 2.984375 0.0664062 2.726562 0.109375 2.46875 0.109375 C 2.09375 0.109375 1.75 0.0390625 1.4375 -0.09375 C 1.132812 -0.226562 0.890625 -0.429688 0.703125 -0.703125 L 0.703125 0 L 0.125 0 L 0.125 -2 L 0.703125 -2 C 0.703125 -1.769531 0.753906 -1.5625 0.859375 -1.375 C 0.960938 -1.195312 1.09375 -1.039062 1.25 -0.90625 C 1.414062 -0.769531 1.601562 -0.660156 1.8125 -0.578125 C 2.03125 -0.503906 2.25 -0.46875 2.46875 -0.46875 C 2.65625 -0.46875 2.832031 -0.492188 3 -0.546875 C 3.164062 -0.609375 3.3125 -0.691406 3.4375 -0.796875 C 3.5625 -0.898438 3.660156 -1.023438 3.734375 -1.171875 C 3.804688 -1.316406 3.84375 -1.484375 3.84375 -1.671875 C 3.84375 -1.878906 3.796875 -2.054688 3.703125 -2.203125 C 3.609375 -2.359375 3.484375 -2.488281 3.328125 -2.59375 C 3.171875 -2.707031 2.992188 -2.800781 2.796875 -2.875 C 2.597656 -2.945312 2.398438 -3.023438 2.203125 -3.109375 C 1.960938 -3.191406 1.722656 -3.273438 1.484375 -3.359375 C 1.253906 -3.453125 1.039062 -3.566406 0.84375 -3.703125 C 0.65625 -3.847656 0.503906 -4.019531 0.390625 -4.21875 C 0.273438 -4.425781 0.21875 -4.679688 0.21875 -4.984375 C 0.21875 -5.253906 0.273438 -5.492188 0.390625 -5.703125 C 0.503906 -5.910156 0.648438 -6.085938 0.828125 -6.234375 C 1.015625 -6.378906 1.226562 -6.488281 1.46875 -6.5625 C 1.71875 -6.644531 1.972656 -6.6875 2.234375 -6.6875 C 2.554688 -6.6875 2.851562 -6.617188 3.125 -6.484375 C 3.394531 -6.359375 3.601562 -6.160156 3.75 -5.890625 L 3.75 -6.578125 L 4.359375 -6.578125 L 4.359375 -4.6875 L 3.75 -4.6875 C 3.75 -4.882812 3.707031 -5.070312 3.625 -5.25 C 3.539062 -5.425781 3.425781 -5.570312 3.28125 -5.6875 C 3.144531 -5.8125 2.984375 -5.910156 2.796875 -5.984375 C 2.617188 -6.054688 2.429688 -6.09375 2.234375 -6.09375 C 2.054688 -6.09375 1.882812 -6.070312 1.71875 -6.03125 C 1.5625 -5.988281 1.421875 -5.921875 1.296875 -5.828125 C 1.179688 -5.742188 1.085938 -5.628906 1.015625 -5.484375 C 0.941406 -5.347656 0.90625 -5.179688 0.90625 -4.984375 C 0.90625 -4.816406 0.945312 -4.671875 1.03125 -4.546875 C 1.113281 -4.429688 1.226562 -4.328125 1.375 -4.234375 C 1.519531 -4.140625 1.6875 -4.054688 1.875 -3.984375 C 2.070312 -3.910156 2.269531 -3.832031 2.46875 -3.75 C 2.707031 -3.664062 2.945312 -3.566406 3.1875 -3.453125 C 3.4375 -3.347656 3.660156 -3.21875 3.859375 -3.0625 C 4.054688 -2.914062 4.21875 -2.734375 4.34375 -2.515625 C 4.46875 -2.296875 4.53125 -2.03125 4.53125 -1.71875 Z M 4.53125 -1.71875 "/></g></g></g><g fill="#000000" fill-opacity="1"><g transform="translate(266.762563, 255.628402)"><g><path d="M 4.453125 0 L 0.25 0 L 0.25 -6.578125 L 4.453125 -6.578125 L 4.453125 -5.984375 L 0.9375 -5.984375 L 0.9375 -3.625 L 3.53125 -3.625 L 3.53125 -3.046875 L 0.9375 -3.046875 L 0.9375 -0.59375 L 4.453125 -0.59375 Z M 4.453125 0 "/></g></g></g><g fill="#000000" fill-opacity="1"><g transform="translate(188.588641, 269.878401)"><g/></g></g></svg>